<?xml version="1.0" encoding="utf-8"?>
<!-- Generator: Adobe Illustrator 28.0.0, SVG Export Plug-In . SVG Version: 6.00 Build 0)  -->
<svg version="1.1" id="Layer_1" xmlns="http://www.w3.org/2000/svg" xmlns:xlink="http://www.w3.org/1999/xlink" x="0px" y="0px"
	 viewBox="0 0 32 32" style="enable-background:new 0 0 32 32;" xml:space="preserve">
<style type="text/css">
	.st0{fill:#FFFFFF;}
</style>
<rect width="32" height="32"/>
<g>
	<g>
		<path class="st0" d="M15.18,1.6c0.24-0.04,0.68-0.05,1.34-0.05c1.06,0,2.22,0.07,3.48,0.21c1.26,0.14,2.2,0.3,2.81,0.48
			c0.14,0.05,0.35,0.12,0.64,0.19c0.28,0.07,0.61,0.16,0.97,0.27c0.36,0.11,0.65,0.19,0.87,0.24c0.94,0.25,1.57,0.47,1.89,0.67
			c0.32,0.2,0.48,0.45,0.48,0.78c0,0.23-0.08,0.45-0.25,0.66c-0.16,0.21-0.56,0.59-1.2,1.16c-0.54,0.46-2.33,3.78-2.61,3.78
			c-0.21,0,0.28-1.87,0.28-1.87c0.35-0.34,1.91-3.6,1.91-3.62c0-0.12-0.69-0.38-2.07-0.76s-2.5-0.65-3.37-0.79
			c-0.8-0.09-1.76-0.17-2.86-0.24l-1.63-0.05l-0.56,0.48c-1.37,1.28-2.19,2.44-2.47,3.45c-0.12,0.41-0.48,1.23-1.1,2.46
			c-0.59,1.12-0.88,1.86-0.88,2.22c0,0.3-0.05,0.51-0.14,0.62c-0.09,0.11-0.58,0.22-1.45,0.35c-0.87,0.14-1.47,0.29-1.8,0.43
			c-0.33,0.14-0.61,0.38-0.85,0.72c-0.28,0.41-0.42,0.85-0.42,1.31c0,0.68,0.24,1.21,0.71,1.61c0.64,0.54,1.44,0.8,2.4,0.8
			c0.31,0,0.54-0.04,0.71-0.11c0.47-0.14,1.13-0.29,1.98-0.43c0.94-0.14,2.11-0.41,3.5-0.8l1.91-0.54h5.16l2.69,1.02
			c1.74,0.64,2.84,1.13,3.28,1.47c0.66,0.46,1.99,2.01,1.99,2.63c0,0.45-0.18,0.8-0.53,1.07c-0.47,0.36-0.71,1.04-0.71,2.06
			c0,0.43-0.03,0.74-0.09,0.95c-0.06,0.21-0.23,0.53-0.51,0.98c-0.42,0.64-0.91,3.17-1.45,3.58c-0.19,0.14-0.47,0.37-0.83,0.68
			c-0.37,0.31-0.7,0.55-1.01,0.71c-0.31,0.16-1.7-0.71-2.16-0.6c-0.59,0.14-1.51,0.21-2.76,0.21h-5.15
			c-2.54-0.02-3.93-0.08-4.17-0.19c-0.26-0.12-0.59-0.71-0.99-1.75c-0.4-1.04-0.6-1.86-0.6-2.45c0-0.37,0.05-0.63,0.16-0.76
			s0.29-0.2,0.55-0.2c0.47,0,0.72,0.36,0.74,1.07c0.05,0.87,0.33,1.75,0.85,2.62l0.28,0.48l1.91,0.16c0.68,0.07,1.33,0.11,1.94,0.11
			c0.47,0,4.02-0.03,4.66-0.08c1.22-0.11,1.96-0.2,2.19-0.27c0.35-0.09,1.84,0.67,2.45,0.29c0.61-0.38,1.06-0.72,1.34-1
			c0.49-0.52,0.84-2.99,1.04-3.42c0.2-0.43,0.32-1,0.37-1.71c0.05-0.64,0.1-1.05,0.16-1.23c0.06-0.18,0.21-0.4,0.44-0.67
			c0.31-0.37,0.46-0.66,0.46-0.86c0-0.25-1.18-1.53-1.53-1.83c-0.24-0.2-0.65-0.41-1.24-0.64c-0.59-0.23-1.1-0.37-1.52-0.43
			c-0.28-0.04-0.84-0.2-1.66-0.51c-0.52-0.2-0.91-0.31-1.18-0.35c-0.27-0.04-0.94-0.05-2-0.05c-1.01,0-1.7,0.02-2.05,0.07
			c-0.35,0.05-1.04,0.19-2.05,0.44c-1.65,0.41-2.71,0.65-3.18,0.72c-0.75,0.12-1.37,0.29-1.84,0.51c-0.35,0.16-0.71,0.24-1.06,0.24
			c-0.47,0-1.22-0.17-2.26-0.51c-1.08-0.36-1.8-0.72-2.14-1.1c-0.34-0.37-0.51-0.98-0.51-1.82v-0.19c0.05-0.91,0.31-1.69,0.78-2.34
			c0.47-0.65,1.08-1.04,1.84-1.16c1.2-0.21,1.8-0.38,1.8-0.51c0-0.18,0.43-1.11,1.29-2.8s1.47-2.81,1.82-3.39
			c0.97-1.46,1.66-2.38,2.08-2.76C14.55,1.68,14.78,1.64,15.18,1.6z"/>
	</g>
	<path class="st0" d="M30.7,3.02l-0.1-0.04L30.32,3.5c-0.14,0.32-0.35,0.78-0.62,1.35l-0.08,0.17C29.37,5.53,29.14,6,28.94,6.42
		c-0.91,1.93-1.69,3.48-2.31,4.62c-0.24,0.44-0.51,0.69-0.84,1c-0.51,0.48-1.2,1.14-2.23,2.84c-1.09,1.8-2.03,5.77-2.92,7.46
		c-0.28,0.51-0.73,1.46-0.84,1.65c0.01-0.24-0.09-4.88-0.71-6.99c-0.49-1.66-1.99-1.37-2.17-3.15c-0.15-1.39-0.15-1.7-0.14-1.75
		c0.09-0.27,0.43-0.73,1.02-1.37c0.86-0.96,1.41-1.82,1.64-2.55c0.08-0.25,0.12-0.43,0.15-0.56c0.12-0.55-0.12-0.76-0.33-0.84
		c-0.09-0.03-0.35-0.14-0.51,0.02c-0.05,0.05-0.14,0.18-0.33,0.67c-0.2,0.56-0.58,1.13-1.15,1.7L16.6,9.84l-0.04-0.78
		c-0.02-0.5-0.06-0.88-0.09-1.22c-0.07-0.77-0.12-1.28,0.07-2.28l-0.46-2.11c-0.1-0.02-0.16,0.06-0.18,0.12L15.84,3.6l-0.02,0.06
		c-0.01,0.05-0.03,0.09-0.04,0.11c-0.17,0.53-0.29,1.46-0.37,2.77c-0.08,1.31-0.07,2.47,0.01,3.44l0.05,0.84l-2.05,2.35
		c-3.11,3.52-4.41,6.71-5.55,9.52c-0.39,0.96-0.76,1.87-1.18,2.74c-0.44,0.94-0.65,1.3-0.75,1.44c-0.09-0.27-0.32-1.14-0.67-2.59
		C5.1,23.54,4.54,22.79,4,22.06c-0.64-0.86-0.3-1.76-0.31-2.62c-0.03-0.88,0.12-4.82,0.51-8.09c0.27-2.34-1.18-4.31-1.11-5.33
		l0.15-4.36L2.54,2.08L1.22,4.49l0.99,2.73c0.55,1.27,1.49,4.05,1.13,6.99c-0.45,3.65-0.8,7.3-0.74,7.98
		c0.05,0.62,0.59,1.31,1.21,2.1c0.69,0.88,0.47,1.88,0.75,3c0.27,1.06,0.43,1.77,0.49,2.16l0.19,0.99l0.48-0.67
		c0.21-0.3,0.61-1.09,1.18-2.37c0.33-0.75,0.54-1.52,0.76-2.34c0.39-1.45,0.8-2.95,1.92-4.54c0.53-0.75,1-1.46,1.46-2.16
		c1.06-1.6,2.06-3.1,3.41-4.47l1.1-1.12l0.02,0.29c0,0.11,0.01,0.27,0.03,0.49c0.02,0.21,0.04,0.46,0.07,0.76l0.06,0.74
		c0.2,1.74,3.26,7.6,2.88,10.18c-0.34,2.55-0.2,2.6-0.07,2.65c0.02,0.01,0.05,0.02,0.08,0.02c0.18,0,0.55-0.36,2.11-3.36
		c0.34-0.67,0.6-1.39,0.87-2.16c0.38-1.11,2.16-5.69,2.3-5.9c1.58-2.4,4.54-4.42,4.57-4.44l0.04-0.05c0.36-0.69,0.57-1.89,0.8-3.16
		c0.18-1,0.36-2.03,0.63-2.86C30.88,3.1,30.84,3.08,30.7,3.02z"/>
</g>
</svg>
