<?xml version="1.0" encoding="UTF-8"?>
<svg id="Layer_1" xmlns="http://www.w3.org/2000/svg" xmlns:xlink="http://www.w3.org/1999/xlink" version="1.1" viewBox="0 0 1386.9 1045.7">
  <!-- Generator: Adobe Illustrator 29.2.1, SVG Export Plug-In . SVG Version: 2.1.0 Build 116)  -->
  <defs>
    <style>
      .st0 {
        fill: #231f20;
        stroke: #231f20;
        stroke-dasharray: 200;
        stroke-miterlimit: 10;
      }
    </style>
  </defs>
  <path class="st0" d="M1201.9,868.1c1.1,7.5-14,23.5-48.2,28.6-1.5.2-2.9.4-4.2.6,1.2-4.7,1.5-9.4.8-14-2.9-19.3-25.1-23.3-57.6-23.3-23.6,0-49.5,2.2-81.5,7.1-30.4,4.6-57.2,7-82,7.5-7.4-.3-19.2,1.4-37,4.1s-25.5,3.8-32.3,6.4c-4.1,1.2-7.6,2.2-10.4,3.1l-1.6.5c-1.4.4-2.4.8-3.1.9-3.1.5-7.9-.2-15.8-2.3-9-2.5-29.5-5.2-107.8-3.9-56.3.9-135.8-4.5-236.3-16.2-81.2-9.4-129.4-15.9-156.2-20.9-45.7-7.4-62.8-14.2-71.4-22.7,8.8,1.5,21.2,3.8,38.3,7.5,98.5,20.8,423.3,48.4,476,40.5,11.9-1.8,19.2-11.7,17.4-23.6s-3.6-24-83.7-96.9c-21.3-20-41.3-45.7-57.9-74.4l-.7-1.2c-26.9-46.9-31.7-55.3-68.3-69.3-4.3-1.4-11.4-4-22.1-7.8l-2.1-.7c-13.6-4.9-31.9-11.4-55.2-19.6-53.1-16.7-107.4-54.7-117.3-75.1-6.2-14.8-16.9-29.4-33.7-46-13.9-14-27.2-31.4-40.5-53.2-30.1-52.9-60.4-84.1-170.4-175.3-64.4-51.9-85.4-71.5-91-78.5.8-.4,2.5-1,5.6-1.5,4,1.3,21.7,8.8,72.9,47.8,81.8,62.6,141.3,121.3,176.9,174.6,15.6,25,34.9,47.9,60.5,71.9,14.1,12.4,23.3,22.7,27.5,30.8,9.5,21.6,56.8,67.8,81.9,80h.2c0,.1.3.2.3.2,15.1,5.9,37.4,13.4,68.2,23.7l34.6,11.6,79.5,25.9,16.4,27.9c13,21.4,28.5,42.1,47.4,63.5l.3.3c14.2,14.4,24.3,29.8,31.8,48.4,14.5,34,56.8,84.7,94.4,103.3,12.9,6.6,25,9.3,39,8.7,14.6-.6,47.8-3.2,93.7-9,69.9-7.7,107.7-10.9,130.4-11.1,24.5-.2,47.6,3.2,68.9,10.2h.3c0,0,.3.2.3.2,15,3.4,21.6,5.7,24.1,6.7.2.8.6,2.1.8,4Z"/>
</svg>