<?xml version="1.0" encoding="UTF-8"?>
<svg id="Layer_1" xmlns="http://www.w3.org/2000/svg" xmlns:xlink="http://www.w3.org/1999/xlink" version="1.1" viewBox="0 0 1386.9 1045.7">
  <!-- Generator: Adobe Illustrator 29.2.1, SVG Export Plug-In . SVG Version: 2.1.0 Build 116)  -->
  <defs>
    <style>
      .st0 {
        fill: #231f20;
        stroke: #231f20;
        stroke-dasharray: 200;
        stroke-miterlimit: 10;
      }
    </style>
  </defs>
  <path class="st0" d="M983.7,893.1c-2.4-7-47.2-123.6-51.7-142.9,6,11.5,54.1,120.3,63.4,120.3s8.9,0,15.2-5c9.7-6.3,34.7-26.3,68.7-55,30.5-26.6,102.4-261.8,122.6-287.7-28.5,39.4-108.3,278.7-168.5,327.9-23.6,19.1-40,33-49.8,42.4ZM431.7,799.4c-5.5-12.1-13.1-31.5-23.3-62.7-2.4-7.1-5-14.9-7.9-23.2,12.2,32.7,18,37.7,30,37.7s17.2-5.7,38.3-50.1c-10.3,23.1-19,46.2-26.2,69.1-4.1,11.7-7.8,21.4-10.9,29.2ZM392,689.4c-16.6-46.7-38.2-104.3-57.4-153.7,19.8,49,38.9,100,57.4,153.7ZM574.8,526.4c17.4-23.3,36.2-46.6,56.3-70,35.5-39.6,35.5-45.7,35.5-52.1,0-9.6-3.7-22.6-30.7-53.5-25.5-30.9-30.9-48.2-30.9-57.3s0-6.5.2-7.4h0c.7-.1,1.5-.2,2.4-.2s.8,0,1.4,0c0,.6,0,1.1.1,1.4,1.6,19.8,12.2,39.8,32.3,61.3l42,44,2.8-3.8,174.8,275.6-178.3-271.5-23.9,29.9c-5.6,7.6-11.5,14.8-17.7,22.3-4.9,5.9-10.9,13.2-16.8,20.9-17.6,20.1-34.1,40.2-49.5,60.3ZM280.3,410.2c-21.7-43.6-41.1-88.3-58.2-133.4,13.5,33.3,31.4,73.8,58.2,133.4ZM747.9,295.5c9.6-19.6,16.8-39.3,21.5-58.9,1.8-7.6,3.8-9.3,5.6-9.6l.2.7c-1.1,11.8-11.8,38.9-27.3,67.9Z"/>
</svg>