<?xml version="1.0" encoding="UTF-8"?>
<svg id="Layer_1" xmlns="http://www.w3.org/2000/svg" xmlns:xlink="http://www.w3.org/1999/xlink" version="1.1" viewBox="0 0 1386.9 1045.7">
  <!-- Generator: Adobe Illustrator 29.2.1, SVG Export Plug-In . SVG Version: 2.1.0 Build 116)  -->
  <defs>
    <style>
      .st0 {
        fill: #231f20;
        stroke: #231f20;
        stroke-dasharray: 200;
        stroke-miterlimit: 10;
      }
    </style>
  </defs>
  <path class="st0" d="M439.7,927.4c-4.1-5.1-13-22.2-17.8-31.3-44.8-84.4-52.7-143.7-23.5-176.2l1.1-1.2.5-.9c2.5-2.5,15.5-13,27-22.3,34.2-27.6,74.6-58.6,123.4-94.7,106.4-79.3,160.4-119.8,170.1-127.6,11.5-9.2,24.9-21.8,37.8-35.4,5.7-5.3,10.5-10,14-13.5,0,0,2.6-2.5,3-2.9.8.9,1.8,2.1,3,3.5-2.7,3.7-5.8,7.6-9.4,11.8-16.3,18.3-28.6,30.5-39.6,39.4s-18.2,14.2-44.9,30.1c-20.2,11.6-65.1,45.9-154.8,118.2-127.1,102.5-131.4,113.3-134.5,121.2l-.2.4c-10,31.7.8,72.9,34,129.4,5.4,9,10.2,16.7,14.2,22.8,6.5,10.2,11.7,18.4,12.4,21.2-.7.7-2.2,1.9-3.4,2.9-6.1,4.9-8.9,6.6-10.2,7.2-.6-.6-1.3-1.6-2-2.4ZM932.7,254.2c.4-2.2,1.4-5.4,3.4-9.7.8-1.5,10.5-18.5,81.3-75.5,36.2-29.2,58.3-45.4,66.9-50.9,1.7-1,3.1-1.7,4.2-2.1-1.7,6.5-5.8,11.9-13.5,18.1l-2.4,1.7c-6.2,4.4-20,14.4-40.7,29.9-9.5,6.1-22.3,16.3-37,28.2-23.7,19.1-37.8,32.7-45.6,44.1-8.4,10.4-12.7,14-13.2,14.4-.9.7-2,1.3-3.3,1.8Z"/>
</svg>