<?xml version="1.0" encoding="UTF-8"?>
<svg id="Layer_1" xmlns="http://www.w3.org/2000/svg" xmlns:xlink="http://www.w3.org/1999/xlink" version="1.1" viewBox="0 0 914.9 1418.4">
  <!-- Generator: Adobe Illustrator 29.2.1, SVG Export Plug-In . SVG Version: 2.1.0 Build 116)  -->
  <defs>
    <style>
      .st0 {
        fill: #231f20;
        stroke: #231f20;
        stroke-dasharray: 200;
        stroke-miterlimit: 10;
      }
    </style>
  </defs>
  <path class="st0" d="M403.1,1286.4c-.4-.3-.9-.8-1.4-1.2,0-1.5.1-3.9,1-7.7,1.8-7.7,3.4-15,5.6-20.4,2.9-5.8,4.9-14.8,8.3-29.4,18.7-81.9,30.8-178.5,36.9-295.5l5.1-93.1-35.9-7.7-17.7,46.1c-59.1,143.4-78.4,173.5-137.3,214.3-54.3,38.2-69.3,52.7-107.8,105.3,32.4-51.1,37.2-56.2,83.8-90.5,88.2-65.2,109.9-97.6,166-247.7,14-35.7,25.1-70.4,31.9-100.2s14.1-81.1,19.4-141c8.8-93.1,16.4-159.7,22.6-197.9,9.6-73.9,12.2-114.1,9-138.7-2.6-26.4-1.5-48.9,3.5-70.6s1.4-5.4,1.8-6.8c3.2-2.3,7.2-6.8,31.1-39.7,22.7-31.9,24.7-31.5,30.2-30.2s15.9,6.3,26.3,14.3c8.9,7.4,14.7,14.8,17.5,22.6,4.8,20,9.7,71-9.5,189.5l-14.3,89.6-56,110.4c-49.1,96-58.1,118.9-60.3,128.7s-1.7,23.4,1.3,59.4c5.3,54-3.1,228.8-20.3,355.9l-21,150,54.5-45,.2-.2c3-2.8,5.1-4.5,6.6-5.5.3.3.5.6.9,1-.2.6-.7,1.8-1.8,3.8-1.9,2.4-10.1,12.6-31.5,32.3-18,15.6-30,27.6-36.6,36.4-2.6,2.9-8.2,8.8-11.9,9.3ZM519.4,191.1c-9.9,15.5-17.1,32.5-20.9,49-4.6,20.3-2.2,39.4,7.3,56.6l.2.3c3.7,5.9,5.5,11.5,5.2,15.7-1,9.6-4.9,37.6-13.5,80.5-13.7,77.3-20.5,118-21.6,128.3l-4.7,39.7,34.6,10.8,27.1-51.2c16.2-31.3,30.2-73.9,43.9-134,23-100.8,28.2-165.8,16.2-204.5-5.4-17-11.9-33.8-27.4-37.3-3.8-.9-17.1-2.6-26.8,12.4-2.5,3.4-6.5,10.3-19.6,33.7Z"/>
</svg>