<?xml version="1.0" encoding="UTF-8"?>
<svg id="Layer_1" xmlns="http://www.w3.org/2000/svg" xmlns:xlink="http://www.w3.org/1999/xlink" version="1.1" viewBox="0 0 1303.9 618.3">
  <!-- Generator: Adobe Illustrator 29.2.1, SVG Export Plug-In . SVG Version: 2.1.0 Build 116)  -->
  <defs>
    <style>
      .st0 {
        fill: #231f20;
        stroke: #231f20;
        stroke-dasharray: 200;
        stroke-miterlimit: 10;
      }
    </style>
  </defs>
  <path class="st0" d="M316.2,492.3c-1.4-10.3-2.7-26.1-2.9-50.2l-1.2-95.9-65.7,58.6c-23,20.5-40.1,36.8-48.6,49.7-5.2,6.2-8.9,9.1-11.1,10.4-.2-1.1-.2-2.5-.2-4,1.2-20.8,38.9-62.9,99.9-97.3,23.4-10.8,29.6-20,28.8-42.6v-2.3c0,0-.5-1.6-.5-1.6-.2-2.7-.4-14.7-.6-25.6.3,2.9.6,5.2.8,6.7,2.1,19.9,16.1,27.7,27.4,28.4s5.2.1,31.7-8.6l11.9-3.9c16.9-6,32.6-12.2,47-18.6-2.7,1.7-5.5,3.5-8.4,5.4-18.5,12-34.5,19.6-50,23.8-21.3,5.2-33.5,10.7-40.4,18.2-6.3,6.1-9.3,14.3-12.2,63.9l-3.8,66.3c-.5,8.1-1.1,14.3-1.9,19ZM473.5,275c25.4-14.8,44.8-30.5,58-47,20.6-24.8,46.2-43,78-55.7,12.9-5.2,42.9-10.5,112.9-6.6,10.7.6,41.4,2.8,95.2,10.3,23.7,3,92.5,10.5,200.8,20.1,3.1.3,6.2.6,9.1.9-55.5-3.4-116.9-9.3-187.5-18-61.2-8.1-87.7-10-94.4-10.3-60.6-3.5-110.9,3.5-149.5,20.8-13.8,6.6-33.3,21.5-61.8,46.9-32.3,28.8-46.8,35.1-52.6,36.4-2.7.6-5.5,1.3-8.4,2.3ZM1165.3,302.6c-2.1-15.6-4.9-31.7-8.5-50.1l-8.5-42.6c.2,0,.5,0,.7,0,2.2,5.8,6.1,17.9,10.7,41.3,2.5,12.3,4.3,29.5,5.6,51.3ZM314,213c.7-12,4.6-25.4,11.8-39.7,11.9-23.9,21.1-33.7,25.8-36.9-1.2,3.8-4.7,12.4-14.9,29.3-12.1,20.2-19.8,37.5-22.9,51.7l.3-4.5Z"/>
</svg>