<?xml version="1.0" encoding="UTF-8"?>
<svg id="Layer_1" xmlns="http://www.w3.org/2000/svg" xmlns:xlink="http://www.w3.org/1999/xlink" version="1.1" viewBox="0 0 1200.6 1491">
  <!-- Generator: Adobe Illustrator 29.2.1, SVG Export Plug-In . SVG Version: 2.1.0 Build 116)  -->
  <defs>
    <style>
      .st0 {
        fill: #231f20;
        stroke: #231f20;
        stroke-dasharray: 200;
        stroke-miterlimit: 10;
      }
    </style>
  </defs>
  <path class="st0" d="M872.7,1252.6c-6.6,0-25.4-3.8-35.6-5.8-93.8-18.1-144.9-49.1-151.9-92.3l-.3-1.6-.3-.9c-.4-3.5-.4-20.2-.4-35,0-43.8,1.2-94.7,3.7-155.5,5.1-132.6,7.4-200.1,7.4-212.5s-1.4-33.1-3.8-51.6c-.6-7.4-1.2-13.9-1.6-18.8,0,0-.4-4.2-.5-4.7,1.3,0,2.8-.1,4.6-.1,1.2,4.4,2.3,9.3,3.3,14.7,4,24.2,5.8,41.4,5.8,55.6s-.3,23.1-4.7,53.9c-3.6,23-5.1,79.4-5.1,194.7,0,163.3,5.8,173.4,10,180.8l.2.4c18.4,27.7,57.2,45.1,122.1,54.8,10.5,1.5,19.4,2.5,26.6,3.3,12,1.4,21.7,2.4,24.3,3.7.1.9.1,2.9.1,4.5,0,7.8-.4,11.1-.8,12.4-.8,0-2,0-3.1,0ZM658.1,446.3c-1.5-1.7-3.3-4.5-5.5-8.8-.7-1.6-7.8-19.8-7.8-110.7s1.2-73.8,2.3-84c.2-2,.6-3.5,1-4.5,4,5.4,5.6,11.9,5.6,21.9l-.2,3c-.3,5.7-1.3,23.1-2.3,50.4-1.3,11.2-1.3,27.6-1.3,46.5,0,30.4,1.8,50,5.7,63.2,2.9,13.1,2.9,18.7,2.9,19.3,0,1.2-.2,2.4-.6,3.7Z"/>
</svg>