<?xml version="1.0" encoding="UTF-8"?>
<svg id="Layer_1" xmlns="http://www.w3.org/2000/svg" xmlns:xlink="http://www.w3.org/1999/xlink" version="1.1" viewBox="0 0 949.3 1436.3">
  <!-- Generator: Adobe Illustrator 29.2.1, SVG Export Plug-In . SVG Version: 2.1.0 Build 116)  -->
  <defs>
    <style>
      .st0 {
        fill: #231f20;
      }

      .st1, .st2, .st3, .st4, .st5 {
        fill: none;
        stroke: #231f20;
        stroke-miterlimit: 10;
      }

      .st2 {
        stroke-dasharray: 146.8 146.8;
      }

      .st3 {
        stroke-dasharray: 147 147;
      }

      .st4 {
        stroke-dasharray: 189.1 189.1;
      }

      .st5 {
        stroke-dasharray: 116.4 116.4;
      }
    </style>
  </defs>
  <path class="st0" d="M633.7,1349.4c35.6-4.5,53.1-7.9,62.8-11.9,15.5-5.5,42.1-23.3,67.2-44.4-21.3,23.8-34.8,37.3-69.7,47.6-14.7,4.3-35.2,7.3-60.3,8.7ZM442.7,1348.8c-47.9-1.6-64.5-3.5-70.2-4.6-11.7-18.4-47.4-131-47.4-186.3s.2-11.4.5-15c1.1,4.9,2.1,12,2.4,21.3,1.4,46.8,12.6,92.6,34.3,140.2l16.6,37.3,63.9,7.1ZM855.2,1166.4c4.4-12.7,7.8-26,10.2-40.5-.8,14.7-3.2,24.4-10.2,40.5ZM874.5,1028.3c2.3-16.7,5.8-22.1,14.9-36.1,14.3-22.2,21.5-41.2,21.5-56.7s-.2-6-.7-9.1c1.5,6.3,2.3,12.8,2.3,19.7,0,15.6-3.8,26.4-12.4,35-11.3,11.3-19.8,27.1-25.5,47.1ZM195.5,868.5c-4,0-16.7-.9-42.2-9.9,7.6,1.1,15.5,1.7,23.6,1.7,11.6,0,25-.9,37.6-7.7,14-5.3,37-12.8,68.7-19.4,37-6.9,82.7-20.7,135.8-41.1l67.3-24.9h183.6l95.7,47.9c.7.4,1.5.7,2.2,1.1-.8-.2-1.6-.3-2.4-.4h-.5c-6.4-.9-24.9-8.6-55-23-43.7-22.6-50.3-22.6-131.1-22.6s-82.7,0-162.5,26.6c-61.4,19.6-101,31.5-117.5,35.3-34.1,8.1-58.6,17.1-76.9,28.5-9.1,5.5-17.8,8.1-26.4,8.1ZM81.5,825.9c-32-19.1-42.2-38.2-44.6-77.7,4.7,24.4,14.7,45.6,29.9,63.2v.2c4.8,5.2,9.7,9.9,14.7,14.3ZM45.9,652c13.1-47.1,38.1-80.2,68.3-86.5h.3c60.5-14.3,87.5-23.4,88.1-49.6,2.9-16.2,55-154.4,91.1-242.4-3.8,11-6.8,21.8-9,32.4-3.6,18.1-18.7,60.5-40.2,118.7-23.2,57.3-34.9,97.5-34.9,119.6s-.3,10.7-.6,13.4c-5.5,1.8-16.7,4.9-38.5,9.2h-.3c-69.7,15.7-95,27.5-117.4,70.6-2.5,4.7-4.8,9.6-6.8,14.6ZM771.1,298.5c0-.5,0-1.1,0-1.8,0-2.9,2-14.8,27.5-46.3l10.4-13.5c11.7-15.1,15.3-19.6,15.3-29.4,0-24.2-27.5-36.8-94.9-61.8-47.2-17.5-98.3-33.4-130.3-40.6h-.5c0-.1-.5-.2-.5-.2-31.1-4.1-67.1-8.1-109.9-12.3h-.3s-74.6-3.3-74.6-3.3l-29.6,33.3-.2.2c-31,38.1-55.1,74.7-72.3,109.3,2.2-5.1,4.3-9.7,6.2-13.7,39.6-80.6,61.2-113.8,71.4-127.2,2.4-.6,6.5-1.3,12.7-1.9h.3s.3,0,.3,0c11.7-1.7,27.7-2.5,47.6-2.5,78.5,0,184.1,17.1,226.7,32.5,37.4,18.6,68.4,27.5,86.9,32.9,3.3,1,6.2,1.8,8.8,2.6,43,14.3,59.7,25.8,63.8,29,3.4,2.7,7.3,7.1,7.3,18.2s-1.4,12.6-4.5,16.9l-.2.3-.2.3c-3.9,6.2-16,24.1-43.4,56.1-11.3,12.8-19.1,19.4-23.7,22.7Z"/>
  <g>
    <path class="st1" d="M633.7,1349.4c35.6-4.5,53.1-7.9,62.8-11.9,15.5-5.5,42.1-23.3,67.2-44.4-21.3,23.8-34.8,37.3-69.7,47.6-14.7,4.3-35.2,7.3-60.3,8.7Z"/>
    <g>
      <path class="st1" d="M341.6,1249c5.3,18.3,12.2,36.7,20.7,55.4l16.6,37.3,63.9,7.1c-47.9-1.6-64.5-3.5-70.2-4.6-6.6-10.4-21-51.1-32.2-94.5"/>
      <path class="st1" d="M338.4,1241.7c-7.6-30.6-13.2-61.8-13.2-83.8s.2-11.4.5-15c1.1,4.9,2.1,12,2.4,21.3.8,26,4.6,51.7,11.5,77.6"/>
    </g>
    <path class="st1" d="M855.2,1166.4c4.4-12.7,7.8-26,10.2-40.5-.8,14.7-3.2,24.4-10.2,40.5Z"/>
    <path class="st1" d="M874.5,1028.3c2.3-16.7,5.8-22.1,14.9-36.1,14.3-22.2,21.5-41.2,21.5-56.7s-.2-6-.7-9.1c1.5,6.3,2.3,12.8,2.3,19.7,0,15.6-3.8,26.4-12.4,35-11.3,11.3-19.8,27.1-25.5,47.1Z"/>
    <g>
      <path class="st1" d="M247.3,847.7c-9.6,3.9-18.1,8.1-25.5,12.7-9.1,5.5-17.8,8.1-26.4,8.1s-16.7-.9-42.2-9.9c7.6,1.1,15.5,1.7,23.6,1.7,11.6,0,25-.9,37.6-7.7,8.5-3.2,20.5-7.3,35.7-11.5"/>
      <path class="st3" d="M391.7,802.1c8.8-3.2,17.9-6.6,27.2-10.1l67.3-24.9h119.6"/>
      <path class="st1" d="M678.4,771.3l87.2,43.6c.7.4,1.5.7,2.2,1.1-.8-.2-1.6-.3-2.4-.4h-.5c-6.4-.9-24.9-8.6-55-23-13.9-7.2-24-12.1-34-15.4"/>
      <path class="st2" d="M529.8,770.5c-36.1,1.4-55.1,6.6-113.5,26.1-44.5,14.2-77.5,24.4-98.6,30.3"/>
    </g>
    <path class="st1" d="M81.5,825.9c-32-19.1-42.2-38.2-44.6-77.7,4.7,24.4,14.7,45.6,29.9,63.2v.2c4.8,5.2,9.7,9.9,14.7,14.3Z"/>
    <g>
      <path class="st1" d="M230.6,460.5c-14,38.5-21.1,66.6-21.1,83.7s-.3,10.7-.6,13.4c-5.5,1.8-16.7,4.9-38.5,9.2h-.3c-69.7,15.7-95,27.5-117.4,70.6-2.5,4.7-4.8,9.6-6.8,14.6,11-39.4,30.2-68.9,53.8-81.3"/>
      <path class="st1" d="M256.7,366.6c12.5-32.4,25.5-65.2,37-93.1-3.8,11-6.8,21.8-9,32.4-2.3,11.7-9.4,33.5-20,63.2"/>
    </g>
    <g>
      <path class="st1" d="M836.2,222.9c-5.4,8.2-17.7,25.3-41.3,52.8-11.3,12.8-19.1,19.4-23.7,22.7,0-.5,0-1.1,0-1.8,0-2.9,2-14.8,27.5-46.3l10.4-13.5c8.6-11,12.8-16.4,14.4-22.3"/>
      <path class="st5" d="M738.5,149c-2.9-1.1-6-2.2-9.1-3.4-47.2-17.5-98.3-33.4-130.3-40.6h-.5c0-.1-.5-.2-.5-.2-8.7-1.1-17.7-2.3-27.1-3.4"/>
      <path class="st1" d="M513.1,95c-8-.8-16.3-1.6-24.9-2.5h-.3s-74.6-3.3-74.6-3.3l-29.6,33.3-.2.2c-31,38.1-55.1,74.7-72.3,109.3,2.2-5.1,4.3-9.7,6.2-13.7,15.8-32.1,28.7-56.7,39.1-75.5"/>
      <path class="st4" d="M516.5,90.1c63.5,5.7,128.6,17.9,159.9,29.2,37.4,18.6,68.4,27.5,86.9,32.9,3.3,1,6.2,1.8,8.8,2.6,6.4,2.1,12.2,4.2,17.5,6.2"/>
    </g>
  </g>
</svg>