<?xml version="1.0" encoding="UTF-8"?>
<svg id="Layer_1" xmlns="http://www.w3.org/2000/svg" xmlns:xlink="http://www.w3.org/1999/xlink" version="1.1" viewBox="0 0 1088.2 1094.5">
  <!-- Generator: Adobe Illustrator 29.2.1, SVG Export Plug-In . SVG Version: 2.1.0 Build 116)  -->
  <defs>
    <style>
      .st0 {
        fill: #231f20;
        stroke: #231f20;
        stroke-dasharray: 200;
        stroke-miterlimit: 10;
      }
    </style>
  </defs>
  <path class="st0" d="M70.4,672.1c-.3,57,8.9,73.8,44.1,121.5,36.7,47.7,77.4,88.4,124.5,124.7,15.7,11.2,38.7,19.6,68.8,25.3h.5c12.5,1.5,21,2.7,26.2,3.4,5.5.7,7.8,1,9.1,1.1,18,.9,43.2-6.6,61.2-13.1,14.6-5.4,27.3-11,37.8-16.6l2.1-1.1,1.8-1.6c9-8.1,14.1-19.9,14.9-34s-.2-29.1-2.9-45.9l-.9-9.7,9.7-4.3c16.7-7.3,33.9-17,34.7-34.2s-9.1-35.1-65.7-99.6c-30.5-35.4-36-46.2-36.8-48.1l-.2-1.6-.6-1.4c0-.3-.2-1.4-.1-3.4.2-3.8,1.2-9.1,3-15.4,3.5-8.1,5.3-16.3,5.9-26.4s-.8-23.8-2.9-43.9v-.5c-2.5-14.1-4.2-43.3-6.8-87.7l-1.1-18.6c-1.2-44.7-3.5-74-4.6-82l-.2-1.2-.3-1.2c-2.1-7.5-9.7-24.9-35.7-26.3-3.8-.2-12.5-2.9-27.7-18.4-21.7-20.6-36.1-29.2-49.9-30s-5.8,0-9.1.8l-6.7-.3h-1c-34.2,1.8-120.8,27.4-137,51.7-16.2,22.4-32.5,99-42.6,178.9,4.8-56.2,9.9-96.5,15.2-120.2,7.4-32.8,18.4-55.3,34.4-70.8,23.3-22.1,38.8-28.8,78.8-34.5,46.3-6.8,71.9-10.3,76.3-10.5,14,.8,29.3,7.9,44.5,20.6,14.3,11.1,30.7,20.2,47.7,26.5h.4c9,2.8,14.3,6.7,15.7,11.8,2.7,9.7,6.1,34.8,7.5,76,1.5,50.4,3.3,88,7.7,119.5,3.4,29.8,6.4,59.6,5.7,74.2s-1.6,13.9-2.6,16.8c-3.5,5.3-3.7,10.7-3.9,13.7-.8,14.9,10.7,27.9,49.1,55.9,18.8,12.6,29.9,22.1,33.7,26.3,5,5.5,6.2,8.2,6.4,9.4v1.1c.1,0,.4,1.1.4,1.1,2.9,12.6,6.2,26.8,22.3,27.7,15.8.8,19.4-4.6,48-72l23.6-52.5-35.2-56c-11.9-18-18.1-29.8-21.3-37.3l45.9,59.5,4-77.2c1.4-27.8,2.3-57.2,2.7-88.1,1.1,77.5,6.3,159.6,16.3,186.7,10.9,30.1,46.2,53.8,108.2,72.3l59.1,18.7c-10.3-.8-24.3-3.7-43-8.1-28.4-7.5-56.2-17.3-82.3-29.1h-.3c-13.1-5.3-21.1-9.3-26.9-12.2-6.7-3.4-12-6-18.4-6.3l-12-.6-9.3,16.4-.2.4s-1.6,3.9-2.5,5.9c-1.3,3-2.8,6.6-4.4,10.6-2,3.6-3.7,6.9-5.3,9.9l-.2.4c-1.2,2.4-2.3,4.5-3.4,6.5l-.2.4c-9,18.7-17.8,36.2-24.9,50.2l-7,14c-9.3,19.4-13.1,30.7-13.6,40.4-1.1,20.5,13,35,34.9,36.1,10.2.5,22.2-1.3,35.5-5.6,21.7-7.4,50.1-27,71.4-48.2-3.1,5.5-7.3,11-12.6,16.5-13.3,14.9-91.5,48.7-102.3,48.3h0s-5.1-1.1-15.9-11.8c-16-15.7-31.7-29.2-48.2-22.8-3.4,1.3-14.3,6.8-15.2,22.9s-.5,8.8,7.9,36.6c2,8,3.3,13.6,4,17.2-5.2,4-16,11.3-38.2,24.8-29.9,17-52.6,25-71.4,25h-1.4s-1.4.2-1.4.2c-4.2.6-12.6.2-23.2-.4-52.7-2.7-91.6-12.2-112.4-27.3-9.5-6.6-59.7-61.2-93-97.3l-71.2-80.2,4.9-72.9ZM590.2,269.8c1-18.5,4.5-26.1,5.6-28,6.8-11.3,13.9-15.6,25.2-15s.5,0,1.2.3l2.9,1.1,8.1.4c12.9.7,31.8-4.2,65.3-16.7,31.3-12,56.3-17.6,74.4-16.7s42.4,8.2,72.2,21c86.7,38.8,115.4,61.3,145.9,114.4,22.1,39,31.4,94.8,27.7,165.8-2.3,45.2-2.1,71.5.9,88.2,2.7,15.3,3.2,24.9,3,27.8-.5,9.4-8.9,40.5-25.1,92.4l-27.5,87.7v75.7c0,45.2-.4,78.4-1.5,98.8-1.1,21.9-3.5,37.8-7.2,49.1,0-.4.2-.8.3-1.2,2.1-7,3.8-18.7,4.5-32,1-19.3.3-43-2.4-76.6-2.4-46.9-3.3-76-2.8-86.3l.2-3.5c.7-3.6,1.4-6.6,1.9-9,.5-2.3,1.4-6.3,1.5-8.3l.4-8.1-5.4-6c-3.7-4.1-12.1-10.3-27.1-6.1h-.4c0,.1-1,.5-1,.5-7.1,2.5-17.3,6.1-24.6,8.3,2.6-2.4,6.3-5.2,11.3-8.2,28-17.1,46-41.4,54.9-74.4l14.4-50.4-88.4,27.8c-43.8,14.1-75,22.5-89.6,25.6-14.4,2.8-25.4,4-33.7,3.7h.5c0-.1,30.7-8.6,45.3-12.6l1.4-.4c39.1-10.7,83.4-22.7,132.2-37.1l13.2-3.9,1.7-32.2c0-1.1.2-1.8.3-2.3,15.9-2.8,22.1-12.7,24.4-18.5l.2-.5c1.7-5.4,5.2-16.6,7.5-33.3,5.7-46.5,9.5-87.3,11.1-118.1s.9-37.9-.4-47l-.4-2c-17.2-67.1-57.4-127.4-99.9-150.1-26.2-13.7-47.3-23-62.7-29.8l-6-2.6c-26.8-12.3-47.9-18.6-66.4-19.5-23.6-1.2-55.7,7.1-101.1,26.3l-4.6,1.9c-25.7,10.5-48,19.5-54.4,21.7-22.4,1.7-25,30.5-27.4,77s-1.1,27.4-1.4,43c.3-53.4.9-87.8,1.6-102.2Z"/>
</svg>