<?xml version="1.0" encoding="UTF-8"?>
<svg id="Layer_1" xmlns="http://www.w3.org/2000/svg" xmlns:xlink="http://www.w3.org/1999/xlink" version="1.1" viewBox="0 0 1420.6 1094.5">
  <!-- Generator: Adobe Illustrator 29.2.1, SVG Export Plug-In . SVG Version: 2.1.0 Build 116)  -->
  <defs>
    <style>
      .st0 {
        fill: #231f20;
        stroke: #231f20;
        stroke-dasharray: 200;
        stroke-miterlimit: 10;
      }
    </style>
  </defs>
  <path class="st0" d="M1265.1,848.4c0-.8,0-1.7,0-2.5,1-7.6,2.1-16.4,3.4-26.4-.7,10.4-1.9,20-3.5,29ZM1246.4,903.4c-13.1,19.9-27.5,17.9-35,16.5-3.2-1.8-19.1-11.4-74.1-54.2-50.3-39.2-84.5-63-101.6-70.9l-3.2-1.8c-17.5-9.6-27.2-14.9-36.7-16.8s-21-1-52.7,16.8c-34.3,19.1-61.9,26.7-82,22.7-2.8-.6-6.4-1.3-7.2-1.7l-1.2-.7-1.3-.5c-23.3-9.1-48-16.2-75.7-21.7l-68.3-15.4-20.1,75.3c-18.7,68.1-22.9,80.7-23.8,83l-.2.5-1,3c-2.2,7-3.9,12.4-5,17.3.1-.6.2-1.1.3-1.7,3.8-18.9,10.8-47.5,20.8-85l25.7-98.5-26.2-14-1.4-.5c-13.5-4.8-30.6-11.4-52.3-19.7-17.3-6.7-36.9-14.2-59.4-22.7-15.5-6.3-30.7-11.8-45.3-16.2,54.1,14.3,102.5,31.3,144.3,50.8,5,3.2,10.1,4.2,14.1,5.1,25.9,5.2,35-29.4,38.4-42.4,6-23.5,18.9-81.7,37.5-174.4,17.8-88.6,32.1-146.6,45.2-182.5,12.1-34.9,21.2-67,26.9-95.5,10.2-50.8,10-54.9-5.1-110.3-6.6-25.9-8.9-38.4-9.5-44.3,1.3,0,3.2.3,5.7.8,1.2,3.6,3,10.3,4.7,16.8v.4c1.2,4.1,2.4,8.7,3.8,13.7,11.4,40,13.5,78.8,6.1,115.3s-12.6,50.7-25,87.9c-14.3,44.3-34.7,128.3-57.7,236.7l-20.4,101.6c-15.7,78.4-11.9,86.8-3.9,94.8,5.1,4.7,13.4,12.3,82.6,26.2,11.4,3.6,25,6.3,39.4,9.2,20.4,4.1,41.6,2.9,62.9-3.6h.4c18.7-7,34.5-14.9,49.4-24.9,12.2-8.1,21.9-11.1,30.5-9.4,15.4,3.1,26.9,9.1,36.1,13.9,4,2.1,7,3.6,9.8,4.9,19.9,8.3,65.2,42.2,97.6,67,68.9,54.8,81,57.2,86.2,58.2s13.5,1,22.6-5l2-1.3s2.1-2.3,2.3-2.5ZM1297.3,491.5c-.7-2.1-1.5-4.1-2.3-6l-.2-.4c-20.3-37.8-167.1-145-221.3-161.4-7.4-2.1-12.3-4.4-15.5-6.4,1.6-.3,3.3-.3,4.8,0,8.9,1.8,34,11.2,101.2,54.1l14.4,8.6c24.1,14.5,41.5,24.9,52.3,32.2,26.1,16.3,57.4,49.5,62.3,59.5,1,3,2.7,10.1,4.4,19.8ZM670.9,989.8c-.2.6-.4,1.2-.7,1.9-1.1,0-2.7-.2-5-.7-8.7-1.7-11.2-2.5-11.7-4.2-1.4-4.4.7-16.6,3.4-30.4-2.7,14.8,2.3,26.4,14,33.4ZM478,686.2c-19.4-3.6-50.4-8.6-92.3-14.8-77.1-10.9-147.6-18.9-203.9-23.2-48.1-1.8-67-4.8-73-6s-4.7-1.1-5.7-1.5c.4-.2,1.1-.5,2.1-.9,19.5-4.5,229.6,17.1,339,39.1,11.5,2.3,22.8,4.7,33.9,7.2Z"/>
</svg>