<?xml version="1.0" encoding="UTF-8"?>
<svg id="Layer_1" xmlns="http://www.w3.org/2000/svg" xmlns:xlink="http://www.w3.org/1999/xlink" version="1.1" viewBox="0 0 1200.6 787.8">
  <!-- Generator: Adobe Illustrator 29.2.1, SVG Export Plug-In . SVG Version: 2.1.0 Build 116)  -->
  <defs>
    <style>
      .st0 {
        fill: #231f20;
        stroke: #231f20;
        stroke-dasharray: 200;
        stroke-miterlimit: 10;
      }
    </style>
  </defs>
  <path class="st0" d="M216.2,452c3.1-9.9,8.7-24.8,18.7-46.6l39.8-87.3-84.4,25c-29.5,8.7-52,16.2-65.1,24.2-7.3,3.4-12,4.4-14.5,4.6.3-1.1.8-2.3,1.6-3.7,9.9-18.3,62-40.3,131.8-45.4,25.8.2,35.3-5.5,44.2-26.2l.9-2.1.3-1.7c1-2.5,5.9-13.6,10.3-23.4-1,2.8-1.7,5-2.1,6.4-6.5,18.9,2.7,32,12.7,37.4s4.6,2.3,32.3,5.8l12.4,1.6c17.9,1.8,34.7,2.9,50.4,3.3-3.2.4-6.5.8-9.9,1.3-21.9,3-39.5,3-55.4.2-21.5-4.3-34.8-4.6-44.3-.8-8.3,2.8-14.5,8.9-38.3,52.6l-31.7,58.4c-3.9,7.1-7.1,12.5-9.8,16.4ZM451.2,322.6c29.3-2.5,53.5-8.4,72.5-17.8,29.2-13.6,60.1-19.2,94.3-17.1,13.9.8,43.3,8.8,104.9,42.3s36.2,20.2,81.7,49.9c20.2,12.8,79.2,48.9,173,103.8,2.7,1.6,5.3,3.2,7.9,4.7-48.8-26.7-101.8-58.3-161.8-96.3-51.9-33.4-75.1-46.4-81-49.6-53.3-29-101.8-44.1-144-45-15.3.1-39.3,5.2-75.8,16-41.5,12.3-57.3,11.8-63.1,10.4-2.7-.6-5.6-1.1-8.6-1.5ZM1065.1,642.6c4.8-15,9.1-30.7,13.7-48.9l10.5-42.2c.2.1.4.2.6.4-.5,6.2-2.1,18.7-7.9,42-3,12.2-8.7,28.5-16.9,48.8ZM333.4,198.4c5.7-10.6,15-21,27.6-30.9,20.9-16.5,33.4-21.5,39.1-22.4-2.7,2.9-9.6,9.2-26,20.2-19.6,13.1-33.9,25.5-42.7,37l2.1-3.9Z"/>
</svg>