<?xml version="1.0" encoding="UTF-8"?>
<svg id="Layer_1" xmlns="http://www.w3.org/2000/svg" xmlns:xlink="http://www.w3.org/1999/xlink" version="1.1" viewBox="0 0 1420.6 1094.5">
  <!-- Generator: Adobe Illustrator 29.2.1, SVG Export Plug-In . SVG Version: 2.1.0 Build 116)  -->
  <defs>
    <style>
      .st0 {
        fill: #231f20;
        stroke: #231f20;
        stroke-dasharray: 200;
        stroke-miterlimit: 10;
      }
    </style>
  </defs>
  <path class="st0" d="M196.1,959.5c-7.2-2.3-14.7-23-4.1-55.9s.9-2.8,1.3-4.1c3.7,3.2,7.7,5.5,12.1,6.9,18.6,6,32.1-12.1,46.6-41.2,10.5-21.1,20.1-45.3,30.1-76.1,9.5-29.3,19.2-54.4,29.8-76.7,3.6-6.4,7.3-17.8,12.8-35s7.9-24.5,8.7-31.8c.8-4.2,1.4-7.8,1.9-10.6l.3-1.7c.2-1.4.4-2.4.5-3,1-3,3.7-7,9.1-13.1,6.2-6.9,17.8-24.1,51.6-94.7,24.3-50.8,64.6-119.5,120-204.3,44.6-68.4,71.9-108.6,88.4-130.4,27-37.6,40.7-49.9,52.2-53.8-5.2,7.2-12.9,17.2-23.8,30.9-62.6,78.9-232.2,357.2-248.6,408s1.9,22.4,13.3,26.1,23.1,7.5,124.1-31.7c27.4-10.1,59.4-16.6,92.4-18.6h1.4c54-3.2,63.7-3.8,92.5-30.3,3.1-3.1,8.4-8.2,16.5-16l3.6-3.4c10.1-9.7,23.6-22.7,40.5-39.1,38.7-40.1,96.8-71.8,119.5-71.5,16,1.1,33.8-2,56.2-9.6,18.8-6.2,40.3-10.3,65.7-12.5,60.8-3.4,102.2-16.6,232.9-74.4,75.2-34.5,102.1-44.6,110.8-46.4,0,.9-.2,2.7-1.1,5.7-3,3-17.6,15.5-75.3,43.9-92.5,45.3-171.6,72.3-235.2,80.4-29.4,2.8-58.4,9.8-91.3,22-17.4,7.1-30.7,10.7-39.8,10.9-23.6-1.1-86,20.6-108.1,37.6l-.2.2-.2.2c-12,10.9-28.5,27.4-51.4,50.2l-26.1,26-58.6,59.6-32.3,2.2c-24.9,2.1-50.4,6.7-77.9,14.1h-.4c-19.2,6.4-37.5,8.6-57.5,7-36.9-2.2-101.2,13-134.5,38.4-11.7,8.6-19.5,18.2-25.2,31-6,13.3-18.4,44.2-33.7,87.9-24.3,65.9-38.3,101.2-48.3,121.7-10.8,22-24.2,41.2-39.8,57.1l-.2.2-.2.2c-9.7,11.9-14.7,16.8-16.8,18.6-.8-.1-2.1-.4-3.9-1Z"/>
</svg>