<?xml version="1.0" encoding="UTF-8"?>
<svg id="Layer_1" xmlns="http://www.w3.org/2000/svg" xmlns:xlink="http://www.w3.org/1999/xlink" version="1.1" viewBox="0 0 999.1 1232.2">
  <!-- Generator: Adobe Illustrator 29.2.1, SVG Export Plug-In . SVG Version: 2.1.0 Build 116)  -->
  <defs>
    <style>
      .st0 {
        fill: #231f20;
        stroke: #231f20;
        stroke-dasharray: 200;
        stroke-miterlimit: 10;
      }
    </style>
  </defs>
  <path class="st0" d="M622.5,1135.1c56.9-2.6,73.2-12.7,119.1-50.3,45.7-39.2,84.3-81.9,118.1-130.8,10.3-16.2,17.6-39.7,21.8-70v-.5c.9-12.5,1.6-21.1,2-26.3.5-5.5.6-7.8.6-9.1,0-18-8.9-42.8-16.3-60.5-6.2-14.3-12.4-26.7-18.5-36.9l-1.2-2.1-1.7-1.7c-8.6-8.6-20.6-13.1-34.7-13.1s-29,1.7-45.7,5.3l-9.6,1.4-4.8-9.5c-8.1-16.3-18.8-32.9-35.9-32.9s-34.5,10.9-96.1,70.8c-33.7,32.3-44.3,38.3-46.2,39.3l-1.6.3-1.4.7c-.3,0-1.3.3-3.4.3-3.9,0-9.1-.7-15.5-2.2-8.3-3.1-16.5-4.5-26.6-4.5s-23.8,2-43.7,5.2h-.5c-13.9,3.3-43.1,6.5-87.3,11.4l-18.4,2c-44.6,3.5-73.8,7.3-81.7,8.9l-1.2.3-1.2.4c-7.3,2.5-24.4,11-24.4,37s-2.2,12.6-17,28.6c-19.5,22.7-27.3,37.5-27.3,51.4s.4,5.8,1.2,9v7.7c3.6,34.1,33.6,119.2,58.8,134.2,23.2,15,100.5,27.4,180.9,33.3-56.4-1.9-96.8-4.9-120.8-9-33.2-5.7-56.2-15.5-72.4-30.7-23.2-22.1-30.8-37.2-38.5-76.9-9.2-45.9-14-71.3-14.4-75.7,0-14,6.4-29.7,18.3-45.5,10.4-14.8,18.6-31.7,24-49v-.4c2.3-9.2,5.9-14.7,10.9-16.3,9.1-3,34.4-7.9,75.5-11.4,50.2-4.1,87.7-7.8,118.9-13.8,29.6-4.9,59.1-9.5,73.8-9.5s14,.9,16.9,1.7c5.5,3.2,10.9,3.2,13.8,3.2,14.9,0,27.3-12.1,53.3-51.9,11.7-19.4,20.5-31,24.5-35,5.3-5.3,7.9-6.6,9.1-6.8l1.1-.2,1.1-.3c12.4-3.5,26.5-7.5,26.5-23.7s-5.6-19.1-74.4-44.2l-53.6-20.9-54.1,38c-17.3,12.8-28.9,19.6-36.2,23.2l57.1-48.9h-77.3c-27.8,0-57.3.6-88.1,1.8,77.3-5.1,159.1-14.6,185.6-25.9,29.5-12.4,51.3-49,66.6-111.7l15.7-60c-.3,10.3-2.5,24.4-5.8,43.4-6,28.8-14.4,57-24.8,83.7v.3c-4.6,13.4-8.1,21.5-10.7,27.5-3,6.9-5.4,12.3-5.4,18.7v12.1l16.9,8.4h.4c0,.1,4,1.5,6.1,2.3,3.1,1.1,6.8,2.5,10.8,3.9,3.7,1.8,7.1,3.3,10.2,4.7l.4.2c2.4,1.1,4.6,2.1,6.6,3.1l.4.2c19.1,8.1,37,15.9,51.4,22.3l14.3,6.3c19.9,8.3,31.3,11.5,41,11.5,20.5,0,34.3-14.8,34.3-36.7s-2.5-22.1-7.4-35.1c-8.5-21.3-29.6-48.7-51.8-68.8,5.6,2.9,11.3,6.8,17.1,11.7,15.6,12.5,53.4,88.8,53.5,99.7h0s-.9,5.2-11,16.4c-14.8,16.8-27.5,33.2-20.3,49.4,1.5,3.3,7.6,13.9,23.7,13.9s8.8,0,36.1-9.7c7.9-2.4,13.4-4,17-4.9,4.2,5,12.1,15.3,26.7,36.9,18.5,29,27.7,51.3,28.7,70.1v1.4c0,0,.4,1.4.4,1.4.8,4.2.8,12.6.8,23.2,0,52.8-7.4,92.1-21.5,113.7-6.1,9.8-58,62.8-92.3,97.9l-76.4,75.2-73.1-1.1ZM193.9,636.7c-18.5,0-26.3-3.1-28.2-4.1-11.7-6.2-16.3-13.1-16.3-24.4s0-.5.2-1.3l1-3v-8.1c0-12.9-5.8-31.6-20.1-64.4-13.6-30.7-20.5-55.4-20.5-73.5s6-42.8,17.2-73.2c34.3-88.6,55.2-118.4,106.7-151.6,37.8-24.1,93.1-36.3,164.2-36.3s71.6-1.6,88.1-5.4c15.2-3.5,24.7-4.4,27.6-4.4,9.4,0,40.9,6.8,93.6,20.3l89,22.9,75.6-3.8c45.1-2.4,78.3-3.7,98.7-3.7s37.9,1.5,49.4,4.7c-.4,0-.8-.2-1.2-.2-7.1-1.8-18.9-2.8-32.1-2.8-19.4,0-42.9,1.9-76.4,6.3-46.7,4.8-75.7,7.2-86.1,7.2h-3.5c-3.6-.5-6.7-1-9.1-1.4-2.3-.4-6.4-1-8.3-1h-8.1l-5.7,5.7c-3.9,3.9-9.7,12.6-4.7,27.4l.2.4.4,1c2.8,7,6.9,17,9.5,24.1-2.5-2.5-5.5-6-8.8-10.8-18.5-27.1-43.8-43.8-77.1-51l-51-11.8,32.3,86.9c16.3,43.1,26.3,73.8,30.2,88.2,3.5,14.2,5.4,25.2,5.5,33.4l-.2-.5s-10-30.2-14.8-44.6l-.5-1.4c-12.7-38.5-27-82.1-43.9-130.1l-4.6-13h-32.3c-1.1,0-1.8,0-2.3-.2-3.6-15.8-13.9-21.4-19.8-23.4h-.5c-5.5-1.5-16.8-4.5-33.7-5.9-46.7-3.3-87.7-5-118.5-5s-37.9,1-46.9,2.8l-2,.5c-66.1,20.7-124.3,63.9-144.8,107.6-12.3,26.8-20.5,48.4-26.5,64.1l-2.3,6.1c-10.9,27.4-16.1,48.8-16.1,67.3s10,55.3,31.5,99.6l2.1,4.5c11.8,25.1,22,47,24.4,53.2,2.9,22.2,31.8,23.4,78.4,23.4s27.4-.3,43.1-.8c-53.4,2.4-87.8,3.7-102.1,3.7Z"/>
</svg>