<?xml version="1.0" encoding="UTF-8"?>
<svg id="Layer_1" xmlns="http://www.w3.org/2000/svg" xmlns:xlink="http://www.w3.org/1999/xlink" version="1.1" viewBox="0 0 1200.6 1491">
  <!-- Generator: Adobe Illustrator 29.2.1, SVG Export Plug-In . SVG Version: 2.1.0 Build 116)  -->
  <defs>
    <style>
      .st0 {
        fill: #231f20;
        stroke: #231f20;
        stroke-dasharray: 200;
        stroke-miterlimit: 10;
      }
    </style>
  </defs>
  <path class="st0" d="M399,1359.2c.8-.1,1.7-.3,2.5-.5,7.7-.5,16.5-1.2,26.6-1.8-10.3,1.3-20,2.1-29.1,2.3ZM341.5,1351.8c-22.1-8.9-23-23.4-23-31.1,1.1-3.5,7.4-21,38.6-83.3,28.5-57.1,45.2-95.3,49.5-113.6l1.2-3.7c5.9-18.9,9.2-29.4,9.2-39.1s-3.2-20.8-26.9-48.4c-25.5-29.9-38.4-55.4-38.4-75.9s0-6.5.2-7.4l.4-1.3.2-1.4c4.3-24.6,6.5-50.2,6.5-78.5l1.7-70-77.8-4.9c-70.4-4.9-83.6-6.6-86-7h-.5c0,0-3.1-.5-3.1-.5-7.3-.8-13-1.4-18-1.5h1.8c19.3,0,48.7,1.2,87.4,3.6l101.6,5.8,8.6-28.5.2-1.5c2-13.9,5-31.5,8.9-53.9l.4-2.5c3.1-18,6.6-38.4,10.3-61.4,3.1-16.3,5.5-32.2,7-47.2-3.4,55.8-10.5,106.4-21.4,151.1-2.2,5.6-2.2,10.7-2.2,14.8,0,26.4,35.7,28.5,49.1,29.3,24.3,1.2,83.8,2.5,178.4,2.5s150,2.7,187.8,8.4c36.6,5,69.9,7.6,98.9,7.6,51.8,0,55.8-1,107.2-26.7,24.1-11.5,35.9-16.3,41.6-18,.2,1.3.3,3.2.4,5.7-3.3,1.9-9.5,5-15.5,7.9l-.3.2c-3.8,1.9-8,3.9-12.7,6.3-37,19.1-74.6,28.7-111.9,28.7s-52.2-2.4-91.1-7.2c-46.3-5.3-132.7-8.8-243.4-10h-103.6c-80,0-87.4,5.4-93.8,14.8-3.6,6-9.4,15.5-9.4,86.1-1.2,11.9-1.2,25.8-1.2,40.4,0,20.9,5.3,41.4,15.9,60.9l.2.3c10.4,17,21.2,30.8,34,43.6,10.4,10.4,15.2,19.3,15.2,28.1,0,15.7-3.6,28.1-6.5,38.1-1,3.6-2.1,7.3-2.9,10.6-4.2,21.1-28.6,72.2-46.5,108.9-40.1,78.4-40.1,90.7-40.1,95.9s1.6,13.4,9.4,21.2l1.7,1.7s2.6,1.6,2.9,1.7ZM755.4,1320.6c1.9-1.1,3.7-2.3,5.4-3.5l.4-.3c33.1-27.3,109.3-192.4,114.8-248.7.6-7.7,1.9-12.9,3.2-16.5.6,1.5.9,3.2.9,4.7,0,9.1-4.3,35.5-33.1,109.9l-5.6,15.7c-9.5,26.5-16.3,45.7-21.3,57.7-10.8,28.8-37.3,66-46.1,72.8-2.8,1.6-9.3,4.7-18.5,8.2ZM143.6,804.5c-.6,0-1.3-.2-2-.3-.2-1-.3-2.7-.3-5,0-8.9.2-11.4,1.8-12.3,4-2.2,16.5-2.6,30.6-2.6-15.1.3-25.6,7.4-30.1,20.3ZM403.4,555.2c-.3-19.7-1.5-50.2-3.7-93-4.5-77.5-10.5-148.2-17.3-204.4-7.6-47.5-8.5-66.7-8.5-72.7s.2-4.8.3-5.9c.3.4.7,1,1.2,1.8,8.3,18.2,28.3,228.4,28.3,340.1s-.1,23-.4,34.2Z"/>
</svg>