<?xml version="1.0" encoding="UTF-8"?>
<svg id="Layer_1" xmlns="http://www.w3.org/2000/svg" xmlns:xlink="http://www.w3.org/1999/xlink" version="1.1" viewBox="0 0 914.9 1418.4">
  <!-- Generator: Adobe Illustrator 29.2.1, SVG Export Plug-In . SVG Version: 2.1.0 Build 116)  -->
  <defs>
    <style>
      .st0 {
        fill: #231f20;
        stroke: #231f20;
        stroke-dasharray: 200;
        stroke-miterlimit: 10;
      }
    </style>
  </defs>
  <path class="st0" d="M484.7,1226.4c-6.5-.7-24.9-6.6-34.7-9.7-91.2-28.5-138.4-65.1-140.6-108.8v-1.6c0,0-.3-1-.3-1,0-3.5,1.9-20.1,3.5-34.8,4.9-43.5,11.8-93.9,21.1-154.1,19.9-131.1,29.9-198,31.3-210.3s2.4-33,2-51.7c.3-7.2.4-13.6.5-18.4,0,0,0-4.7,0-5.2,1.3,0,2.8.2,4.6.4.7,4.5,1.2,9.4,1.6,15,1.3,24.5,1.1,41.8-.5,55.9-.5,4.8-2.9,22.9-10.8,53-6.2,22.4-14,78.4-27,192.9-18.4,162.3-13.8,172.9-10.4,180.7l.2.4c15.2,29.6,51.8,51.2,115.2,68.2,10.3,2.7,19,4.7,26.1,6.3,11.8,2.7,21.3,4.9,23.7,6.4,0,1-.2,2.9-.4,4.5-.9,7.8-1.7,11-2.2,12.3-.8,0-2-.2-3.1-.3ZM362.2,401.1c-1.2-1.9-2.8-4.8-4.5-9.3-.5-1.6-5.5-20.6,4.7-110.8,5.2-46.1,9.5-73.2,11.8-83.2.5-1.9,1-3.4,1.5-4.4,3.3,5.8,4.2,12.5,3.1,22.4l-.5,2.9c-1,5.6-3.9,22.8-7.9,49.8-2.5,11-4.4,27.3-6.5,46.1-3.4,30.3-3.9,49.8-1.5,63.4,1.4,13.3.8,18.9.8,19.5-.1,1.2-.5,2.4-1.1,3.6Z"/>
</svg>