<?xml version="1.0" encoding="UTF-8"?>
<svg id="Layer_1" xmlns="http://www.w3.org/2000/svg" xmlns:xlink="http://www.w3.org/1999/xlink" version="1.1" viewBox="0 0 1358.2 945.3">
  <!-- Generator: Adobe Illustrator 29.2.1, SVG Export Plug-In . SVG Version: 2.1.0 Build 116)  -->
  <defs>
    <style>
      .st0 {
        fill: #231f20;
        stroke: #231f20;
        stroke-dasharray: 200;
        stroke-miterlimit: 10;
      }
    </style>
  </defs>
  <path class="st0" d="M1113.7,386.7c0-57-9.4-73.7-44.9-121.3-37-47.4-78-87.9-125.3-123.9-15.7-11.1-38.9-19.4-68.9-24.9h-.5c-12.5-1.5-21-2.6-26.2-3.2-5.4-.7-7.8-1-9.1-1-18-.8-43.2,6.9-61.2,13.5-14.6,5.5-27.2,11.1-37.7,16.8l-2.1,1.1-1.8,1.6c-9,8.2-14,20-14.7,34.1-.6,14.1.4,29.1,3.2,45.9l1,9.7-9.7,4.3c-16.6,7.4-33.8,17.3-34.5,34.4-.7,15.4,9.4,35,66.3,99.2,30.8,35.2,36.3,46,37.1,47.9l.2,1.6.6,1.4c0,.3.2,1.4.1,3.4-.2,3.8-1.2,9.1-2.9,15.4-3.5,8.2-5.2,16.3-5.7,26.4s1,23.8,3.2,43.9v.5c2.6,14,4.5,43.2,7.4,87.5l1.2,18.7c1.5,44.7,4,74,5.2,82l.2,1.2.3,1.2c2.1,7.4,9.9,24.9,35.8,26,3.8.2,12.5,2.8,27.8,18.3,21.8,20.5,36.3,29,50.1,29.6s5.8,0,9.1-.8l6.7.3h1c34.2-2,120.7-28.2,136.7-52.6,16.1-22.5,31.9-99.2,41.4-179.2-4.4,56.2-9.2,96.5-14.4,120.3-7.2,32.9-18,55.4-33.9,71-23.2,22.2-38.6,29.1-78.5,35l-1,.2c-17.1,2.6-68.7,10.5-75.2,10.8-14-.7-29.4-7.7-44.7-20.3-14.3-11.1-30.9-20-47.9-26.2h-.4c-9.1-2.7-14.4-6.6-15.8-11.7-2.8-9.7-6.3-34.7-8-75.9-1.8-50.4-3.8-87.9-8.4-119.4-3.6-29.8-6.8-59.5-6.1-74.2s1.5-13.9,2.5-16.8c3.4-5.4,3.7-10.7,3.8-13.7.7-14.9-10.9-27.8-49.5-55.6-18.9-12.5-30-21.9-33.9-26.1-5-5.5-6.3-8.1-6.4-9.4v-1.1c-.1,0-.4-1.1-.4-1.1-3-12.6-6.3-26.8-22.5-27.5s-19.4,4.7-47.5,72.3l-23.3,52.6,35.5,55.8c12,17.9,18.3,29.8,21.5,37.2l-46.3-59.3-3.5,77.3c-1.3,27.7-2,57.2-2.2,88-1.6-77.5-7.4-159.5-17.5-186.5-11.1-30-46.6-53.5-108.6-71.6l-59.3-18.4c10.3.8,24.3,3.6,43.1,7.8,28.5,7.3,56.3,16.9,82.5,28.6h.3c13.2,5.2,21.2,9.1,26.9,12,7,3.4,12,5.9,18.4,6.2l12,.5,9.2-16.5.2-.4s1.6-3.9,2.4-6c1.3-3,2.8-6.6,4.4-10.6,2-3.7,3.7-7.1,5.3-10.1,1.3-2.6,2.4-4.8,3.5-6.7l.2-.4c9-18.8,17.6-36.3,24.6-50.4l6.9-14c9-19.2,12.9-30.9,13.3-40.5.9-20.5-13.2-34.9-35.2-35.9s-22.1,1.5-35.4,5.8c-21.7,7.6-49.9,27.4-71.1,48.6,3.1-5.5,7.3-11,12.5-16.6,13.2-15,91.2-49.3,102-48.9h0s5.1,1.1,15.9,11.7c16.1,15.6,31.9,29,48.4,22.5,3.3-1.3,14.3-6.9,15-23s.4-8.8-8.1-36.5c-2.1-8-3.4-13.6-4.1-17.2,5.1-4,15.9-11.4,38-25,29.8-17.2,52.5-25.3,71.3-25.5h1.5s1.4-.2,1.4-.2c4.2-.6,12.6-.3,23.2.2,52.7,2.4,91.7,11.6,112.6,26.6,9.5,6.5,60.1,60.8,93.7,96.7l71.7,79.7-4.4,72.9ZM596.5,792.4c-.8,18.5-4.3,26.1-5.4,28-6.8,11.4-13.8,15.7-25.1,15.2s-.5,0-1.2-.3l-2.9-1.1-8.1-.4c-12.9-.6-31.8,4.4-65.2,17.1-31.3,12.2-56.2,18-74.3,17.2-17.4-.8-42.4-7.9-72.4-20.5-87-38.3-115.8-60.5-146.6-113.5-22.3-38.9-32-94.6-28.8-165.7,2-45.2,1.6-71.6-1.4-88.2-2.8-15.3-3.3-24.9-3.2-27.8.4-9.4,8.7-40.6,24.5-92.6l26.9-87.9-.4-75.7c-.4-45.1-.1-78.3.8-98.8s3.2-37.8,6.9-49.1c0,.4-.2.8-.3,1.2-2.1,7-3.7,18.8-4.3,32-.9,19.3,0,42.9,2.9,76.6,2.7,46.9,3.8,76,3.3,86.3l-.2,3.5c-.7,3.5-1.3,6.5-1.8,8.8-.5,2.5-1.4,6.6-1.4,8.5l-.4,8.1,5.5,6c3.7,4,12.1,10.2,27.1,5.9l1.4-.5c7.1-2.5,17.4-6.2,24.6-8.5-2.6,2.4-6.3,5.2-11.2,8.3-27.9,17.3-45.7,41.7-54.5,74.8l-14.1,50.5,88.3-28.4c43.8-14.3,74.9-23,89.4-26.2,14.3-2.9,25.4-4.2,33.6-4l-.5.2s-30.7,8.6-45.3,12.7l-1.2.3c-39.1,10.9-83.3,23.3-132.2,38.1l-13.2,4-1.5,32.2c0,1.1-.2,1.8-.3,2.3-15.9,2.9-22,12.9-24.3,18.7l-.2.5c-1.7,5.4-5.1,16.7-7.2,33.4-5.4,46.6-8.9,87.4-10.3,118.2-.9,20.5-.7,38.1.7,47l.4,2c17.6,67,58.2,127,100.9,149.5,26.2,13.5,47.4,22.7,62.9,29.4l6,2.6c26.9,12.2,48,18.3,66.5,19.1,23.6,1.1,55.7-7.5,100.9-27l4.6-1.9c25.7-10.6,48-19.9,54.3-22,22.3-1.9,24.8-30.7,26.9-77.2s1-27.2,1.1-42.7c0,53.2-.3,87.6-1,101.9Z"/>
</svg>