<?xml version="1.0" encoding="UTF-8"?>
<svg id="Layer_1" xmlns="http://www.w3.org/2000/svg" xmlns:xlink="http://www.w3.org/1999/xlink" version="1.1" viewBox="0 0 1420.6 1094.5">
  <!-- Generator: Adobe Illustrator 29.2.1, SVG Export Plug-In . SVG Version: 2.1.0 Build 116)  -->
  <defs>
    <style>
      .st0 {
        fill: #231f20;
        stroke: #231f20;
        stroke-dasharray: 200;
        stroke-miterlimit: 10;
      }
    </style>
  </defs>
  <path class="st0" d="M1317.6,982.2c-7.2-13.2-20.5-23.7-39.8-31.1-19.4-8.7-51.4-17.4-100.3-27.5-40.2-8.1-72.7-19.3-93.8-32.3-40.1-23.6-48.2-36.2-72.1-112.2-22.2-75.5-47.1-123.3-76.1-146l-.2-.2-15-9.9-19.8,24.4,10.2-.5-11.7,7.2c1.2,2.1,6.7,16.8,15.9,55.8,11,47.2,19.5,76.5,22.9,86.3l6.8,20.3-16,24.3-.2.3c-15.9,30-26.6,53.4-34.7,75.6-14.6,41.5-19.3,42.9-99.2,67.5-21.4,5.5-96.9,28.6-120.4,37.4-45.8,15.1-72.1,23.1-75.6,24.1-13.2,2.4-92.1-13.7-124-28.5-12.1-5.7-24.1-19.6-34.8-40.1-13.1-25.9-28.8-67.5-45.4-120.4-11.5-33.4-22.5-61.9-30.4-78.2l-.9-1.7c-11.3-18.5-30.1-66.5-55.5-190.4-1.2-5.7-2.5-12.2-3.4-22.2v-1.1c0,0-4.6-21.7-4.6-21.7-1.2-12-4.2-26.4-7.9-44.7-8.2-40.1-22.1-89.3-42.4-150.7l-3.1-9.9c-22-70.3-36.6-116.8-38.5-126.2-1.3-6.3-1.3-10.4-1.1-12.6,2.1,2.5,5,6.4,8.5,11.9,6.7,13.8,12.5,22.6,18.7,28.1,3.6,9.4,16.6,51.2,55.5,233.6l52.2,241.9,28.7,56.9c17.7,35,29,65.1,34.5,92,9.1,44.6,39,118,60.9,140.3,9.9,9.8,30.7,18.5,63.9,26.7,29.6,7.9,51.4,10.2,66.6,7.1l11.5-2.4,2.7-1.6c.6-.4,2.6-.8,3.6-1,36.9-7.6,69.2-17.6,97.6-26.4l.6-.2c14-4.3,27.2-8.4,39.6-11.8,59-17.2,94.1-29.6,104.6-36.8,13-9.3,25.5-28.7,40.7-62.8l.2-.4c3.1-8.1,6.1-14.4,8.6-19.4l2.2-4.6c21.5-48,22.8-55.5,15.8-89.4-26.4-119.3-36.5-132.9-42.4-139.3-5.8-11.5-35-115.6-50.2-189.7-2.2-10.6-4.9-23.8-4.9-26.3v-1.7c0,0,0-.2,0-.2-.6-18.8,3.9-55.6,28.4-124.6,9.1-26.5,12.4-49.7,10.4-72.9-2.7-24.4-.8-36,.7-40.9l3,1.2,5.8-1.2c22.7-4.7,18.1-27.4,13.1-51.5l-10.9-53c-3.2-15.4-4.6-24.9-5.3-30.4.1,0,.3,0,.4,0,4.4,10.6,14,38.8,28.3,93.3,10.5,39.4,17.8,68.4,20.9,83.8s6,44.1,7.3,83.1c.7,37.9,2.9,64.5,6.8,83.7s1.8,7.4,3.8,14.7l.2.7c1.8,6.6,4.2,15.2,7,26.1l3.9,15.1c4.2,16.2,7.9,30.2,9.9,40.1,1.5,7.1,3.9,19,3.9,21.4v3.1s0,.4,0,.4c2.6,24.8,5.2,44.1,7.6,55.7s.7,2.9,2.1,8.2c1.9,7.1,5.5,20.4,10.1,39.1,3.8,14.1,6.6,23.1,7.9,27.4l.6,2.1c0,1-.6,3.2-2.9,6l-.6.6c-15.2,17.7-13.7,28.3-1.7,49,2.8,4.8,9.6,20.3,24.9,70.8,12.7,42,25.4,70.2,38.8,86.3l.3.3c24.1,25.6,61.7,44,114.8,56.4,52.9,12.5,91.1,23.2,113.4,31.9,18.7,7.3,32,17.4,39.5,30.1.3.7.8,1.6,1.2,2.5-.6.5-1.4,1.1-2.5,1.8Z"/>
</svg>